<?xml version="1.0" encoding="utf-8"?>
<!-- Generator: Adobe Illustrator 28.1.0, SVG Export Plug-In . SVG Version: 6.00 Build 0)  -->
<svg version="1.1" id="Layer_1" xmlns="http://www.w3.org/2000/svg" xmlns:xlink="http://www.w3.org/1999/xlink" x="0px" y="0px"
	 viewBox="0 0 85 27" style="enable-background:new 0 0 85 27;" xml:space="preserve">
<style type="text/css">
	.st0{fill:#FFFFFF;}
</style>
<g>
	<path class="st0" d="M7.4,17.5c-0.1,0-0.1-0.1-0.2-0.1l-0.7-2.3H3l-0.7,2.3c0,0.1-0.1,0.1-0.2,0.1H0.3c-0.1,0-0.1-0.1-0.1-0.1
		l3.2-9.1c0-0.1,0.1-0.1,0.2-0.1H6c0.1,0,0.1,0.1,0.2,0.1l3.1,9.1c0,0.1,0,0.1-0.1,0.1H7.4z M6,13.5l-1.3-4l-1.2,4H6z"/>
	<path class="st0" d="M9.6,17.5c-0.1,0-0.1-0.1-0.1-0.1l0-3.2l0-3.5c0-0.1,0.1-0.1,0.1-0.1h1.7c0.1,0,0.1,0.1,0.1,0.1l0,0.7
		c0.5-0.6,1.3-1,2.2-1c1.5,0,2.4,1,2.4,2.7v1.4l0,2.8c0,0.1-0.1,0.1-0.1,0.1h-1.8c-0.1,0-0.1-0.1-0.1-0.1l0-2.8v-1.4
		c0-0.7-0.4-1.2-1-1.2c-0.7,0-1.5,0.7-1.5,2.1v0.5l0,2.8c0,0.1-0.1,0.1-0.1,0.1H9.6z"/>
	<path class="st0" d="M21.6,17.5c-0.1,0-0.1-0.1-0.1-0.1l0-0.7c-0.5,0.6-1.2,0.9-2,0.9c-2,0-3-1.6-3-3.6c0-2,1.1-3.6,3-3.6
		c0.8,0,1.5,0.3,2,0.9l0-3.1c0-0.1,0.1-0.1,0.1-0.1h1.8c0.1,0,0.1,0.1,0.1,0.1l0,4.6l0,4.6c0,0.1-0.1,0.1-0.1,0.1H21.6z M20,16.3
		c1,0,1.5-0.7,1.5-2.2c0-1.5-0.5-2.3-1.5-2.3c-1,0-1.5,0.7-1.5,2.2C18.5,15.6,19.1,16.3,20,16.3z"/>
	<path class="st0" d="M24.2,17.5c-0.1,0-0.1-0.1-0.1-0.1l0.1-3.3l-0.1-3.3c0-0.1,0.1-0.1,0.1-0.1H26c0.1,0,0.1,0.1,0.1,0.1l-0.1,1
		c0.5-0.8,1.5-1.2,2.5-1.2c0.1,0,0.2,0,0.3,0c0.1,0,0.1,0.1,0.1,0.1V12c0,0.1-0.1,0.1-0.1,0.1c-0.1,0-0.2,0-0.3,0
		c-1.4,0-2.5,0.8-2.5,2.4v2.9c0,0.1-0.1,0.1-0.1,0.1H24.2z"/>
	<path class="st0" d="M35.5,15.2c0.1,0,0.1,0.1,0.1,0.1c-0.2,1.3-1.4,2.4-3.3,2.4c-2.3,0-3.5-1.5-3.5-3.6c0-2.2,1.3-3.6,3.5-3.6
		c2.3,0,3.5,1.5,3.6,3.9c0,0.1-0.1,0.1-0.1,0.1h-4.9c0.1,1.3,0.6,1.9,1.6,1.9c0.7,0,1.1-0.3,1.3-1c0-0.1,0.1-0.1,0.1-0.1H35.5z
		 M32.3,11.8c-0.8,0-1.3,0.5-1.4,1.4h2.8C33.6,12.5,33.2,11.8,32.3,11.8z"/>
	<path class="st0" d="M36.5,10c-0.1,0-0.1-0.1-0.1-0.1V8.3c0-0.1,0.1-0.1,0.1-0.1h1.8c0.1,0,0.1,0.1,0.1,0.1v1.6
		c0,0.1-0.1,0.1-0.1,0.1H36.5z M36.5,17.5c-0.1,0-0.1-0.1-0.1-0.1l0-3.3l0-3.3c0-0.1,0.1-0.1,0.1-0.1h1.8c0.1,0,0.1,0.1,0.1,0.1
		l0,3.3l0,3.3c0,0.1-0.1,0.1-0.1,0.1H36.5z"/>
	<path class="st0" d="M46,17.7c-2.9,0-4.7-2-4.7-4.8c0-3,1.8-4.9,4.6-4.9c2,0,3.6,0.8,4.2,3.3c0,0.1,0,0.1-0.1,0.1h-1.8
		c-0.1,0-0.1-0.1-0.1-0.1c-0.3-1.1-1-1.8-2.2-1.8c-1.6,0-2.5,1.3-2.5,3.3c0,2.1,0.9,3.3,2.5,3.3c1.3,0,2-0.7,2.3-2
		c0-0.1,0.1-0.1,0.1-0.1h1.8c0.1,0,0.1,0.1,0.1,0.1C49.8,16.7,48.2,17.7,46,17.7z"/>
	<path class="st0" d="M55.7,17.5c-0.1,0-0.1-0.1-0.1-0.1l0-0.7c-0.5,0.6-1.2,0.9-2,0.9c-2,0-3-1.6-3-3.6c0-2,1.1-3.6,3-3.6
		c0.9,0,1.5,0.3,2,0.9l0-0.6c0-0.1,0.1-0.1,0.1-0.1h1.8c0.1,0,0.1,0.1,0.1,0.1l0,3.3l0,3.3c0,0.1-0.1,0.1-0.1,0.1H55.7z M54.1,16.3
		c1,0,1.5-0.7,1.5-2.2c0-1.5-0.5-2.3-1.5-2.3c-1,0-1.5,0.7-1.5,2.2C52.6,15.5,53.2,16.3,54.1,16.3z"/>
	<path class="st0" d="M58.3,17.5c-0.1,0-0.1-0.1-0.1-0.1l0.1-3.3l-0.1-3.3c0-0.1,0.1-0.1,0.1-0.1h1.8c0.1,0,0.1,0.1,0.1,0.1l-0.1,1
		c0.5-0.8,1.5-1.2,2.5-1.2c0.1,0,0.2,0,0.3,0c0.1,0,0.1,0.1,0.1,0.1V12c0,0.1-0.1,0.1-0.1,0.1c-0.1,0-0.2,0-0.3,0
		c-1.4,0-2.5,0.8-2.5,2.4v2.9c0,0.1-0.1,0.1-0.1,0.1H58.3z"/>
	<path class="st0" d="M67.4,17.6c-0.8,0-1.5-0.3-2-0.8l0,2.9c0,0.1-0.1,0.1-0.1,0.1h-1.8c-0.1,0-0.1-0.1-0.1-0.1l0-4.9l0-4
		c0-0.1,0.1-0.1,0.1-0.1h1.8c0.1,0,0.1,0.1,0.1,0.1l0,0.7c0.5-0.6,1.2-0.9,2-0.9c2,0,3,1.6,3,3.6C70.4,16,69.2,17.6,67.4,17.6z
		 M66.8,16.3c1,0,1.5-0.7,1.5-2.1c0-1.5-0.5-2.3-1.5-2.3s-1.5,0.7-1.5,2.2C65.3,15.5,65.8,16.3,66.8,16.3z"/>
	<path class="st0" d="M77.4,15.2c0.1,0,0.1,0.1,0.1,0.1c-0.2,1.3-1.4,2.4-3.3,2.4c-2.3,0-3.5-1.5-3.5-3.6c0-2.2,1.3-3.6,3.5-3.6
		c2.3,0,3.5,1.5,3.6,3.9c0,0.1-0.1,0.1-0.1,0.1h-4.9c0.1,1.3,0.6,1.9,1.6,1.9c0.7,0,1.1-0.3,1.3-1c0-0.1,0.1-0.1,0.1-0.1H77.4z
		 M74.2,11.8c-0.8,0-1.3,0.5-1.4,1.4h2.8C75.5,12.5,75.1,11.8,74.2,11.8z"/>
	<path class="st0" d="M78.3,17.5c-0.1,0-0.1-0.1-0.1-0.1l0-3.2l0-3.5c0-0.1,0.1-0.1,0.1-0.1h1.7c0.1,0,0.1,0.1,0.1,0.1l0,0.7
		c0.5-0.6,1.3-1,2.2-1c1.5,0,2.4,1,2.4,2.7v1.4l0,2.8c0,0.1-0.1,0.1-0.1,0.1h-1.8c-0.1,0-0.1-0.1-0.1-0.1l0-2.8v-1.4
		c0-0.7-0.4-1.2-1-1.2c-0.7,0-1.5,0.7-1.5,2.1v0.5l0,2.8c0,0.1-0.1,0.1-0.1,0.1H78.3z"/>
</g>
</svg>
